	<svg version="1.1" xmlns="http://www.w3.org/2000/svg" xmlns:xlink="http://www.w3.org/1999/xlink" class="" pageAlignment="none" x="0px" y="0px" width="350px" height="150px" viewBox="0 0 842 595" enable-background="new 0 0 842 595" xml:space="preserve">
	<defs xmlns=""/>
	<g xmlns="" type="LAYER" name="workspace" id="workspace" locked="true"/>
	<g xmlns="" type="LAYER" name="Layer 01" id="Layer 01">
	<path transform="matrix(1 0 0 1 268.89977477477464 147.4099099099099)" width="170.1914414414415" height="164.8310810810811" stroke-miterlimit="3" stroke="#000000" fill="#474545" d="M0,82.41554054054055 C0,36.89869021621622 38.09864762162163,0 85.09572072072075,0 C132.09279381981986,0 170.1914414414415,36.89869021621622 170.1914414414415,82.41554054054055 C170.1914414414415,127.93239086486489 132.09279381981986,164.8310810810811 85.09572072072075,164.8310810810811 C38.09864762162163,164.8310810810811 0,127.93239086486489 0,82.41554054054055 Z "/><path transform="matrix(1 0 0 1 361.36599099098737 238.53603603603602)" width="247.28079624531424" height="115.24774774774775" stroke-width="0.6693009793097399" stroke-miterlimit="3" stroke="#000000" fill="#99A0A0" d="M-1.1368683772161603e-13,-18.091216216216196 C-1.1368683772161603e-13,-8.09971248648651 49.49824297297289,0 110.55743243243228,0 C171.61662189189155,0 222.45495495495481,-42.27200978378377 222.45495495495481,-52.263513513513516 C222.45495495495481,-62.2550172432432 280.83396423423164,-115.24774774774775 219.77477477477464,-115.24774774774775 C158.71558531531264,-115.24774774774775 -1.1368683772161603e-13,-28.08271994594594 -1.1368683772161603e-13,-18.091216216216196 Z "/><path transform="matrix(1 0 0 1 342.92266494040007 239.87612612612622)" width="249.57469196743276" height="115.24774774774778" stroke-width="0.6723981921446767" stroke-miterlimit="3" stroke="#000000" fill="#99A0A0" d="M1.1368683772161603e-13,-18.091216216216253 C1.1368683772161603e-13,-8.099712486486567 -49.95741250628123,0 -111.58301640480659,0 C-173.20862030333188,0 -224.51855422058082,-42.272009783783744 -224.51855422058082,-52.263513513513544 C-224.51855422058082,-62.25501724324323 -283.43911529716905,-115.24774774774778 -221.81351139864603,-115.24774774774778 C-160.18790750011811,-115.24774774774778 1.1368683772161603e-13,-28.082719945945996 1.1368683772161603e-13,-18.091216216216253 Z "/><path transform="matrix(1 0 0 1 347.35895176685665 239.47336631035563)" width="118.4962087407763" height="71.15379349516493" stroke-width="0.6723981921446767" stroke-miterlimit="3" stroke="#000000" fill="#8DAFAF" d="M-8.869553190918623,-14.740990990991293 C-8.869553190918623,-4.749487261261606 -14.153392913378184,54.00636341937411 -75.77899681190343,54.00636341937411 C-137.404600710429,54.00636341937411 -126.70242023532694,58.63750678874368 -126.70242023532694,48.646003059013765 C-126.70242023532694,38.654499329283965 -129.36406016988673,-2.277420364409693 -67.7384562713629,-2.277420364409693 C-6.11285237283596,-2.277420364409693 -8.869553190920328,-23.392404630631006 -8.869553190920328,-13.400900900901092 Z "/><path transform="matrix(1 0 0 1 356.3986414374732 239.14128699712734)" width="133.05482355753986" height="71.15379349516493" stroke-width="0.712507796797518" stroke-miterlimit="3" stroke="#000000" fill="#8DAFAF" d="M9.959279266339763,-14.740990990991293 C9.959279266339763,-4.749487261261606 15.892299144774483,54.00636341937411 85.08931346683278,54.00636341937411 C154.28632778889164,54.00636341937411 142.2692620116162,58.63750678874368 142.2692620116162,48.646003059013765 C142.2692620116162,38.65449932928402 145.25791486076594,-2.277420364409693 76.06090053870912,-2.277420364409693 C6.86388621664878,-2.277420364409693 9.959279266341582,-23.392404630631006 9.959279266341582,-13.400900900901092 Z "/></g>
	</svg>
